<?xml version="1.0" encoding="UTF-8" standalone="no"?>
<svg
   xmlns:dc="http://purl.org/dc/elements/1.1/"
   xmlns:cc="http://creativecommons.org/ns#"
   xmlns:rdf="http://www.w3.org/1999/02/22-rdf-syntax-ns#"
   xmlns:svg="http://www.w3.org/2000/svg"
   xmlns="http://www.w3.org/2000/svg"
   xmlns:sodipodi="http://sodipodi.sourceforge.net/DTD/sodipodi-0.dtd"
   xmlns:inkscape="http://www.inkscape.org/namespaces/inkscape"
   enable-background="new 0 0 1497 504"
   version="1.1"
   viewBox="0 0 130.4799 289.05063"
   id="svg3811"
   sodipodi:docname="bishop-2.svg"
   width="130.4799"
   height="289.05063"
   inkscape:version="0.92.4 (5da689c313, 2019-01-14)">
  <metadata
     id="metadata3817">
    <rdf:RDF>
      <cc:Work
         rdf:about="">
        <dc:format>image/svg+xml</dc:format>
        <dc:type
           rdf:resource="http://purl.org/dc/dcmitype/StillImage" />
        <dc:title></dc:title>
      </cc:Work>
    </rdf:RDF>
  </metadata>
  <defs
     id="defs3815" />
  <sodipodi:namedview
     pagecolor="#ffffff"
     bordercolor="#666666"
     borderopacity="1"
     objecttolerance="10"
     gridtolerance="10"
     guidetolerance="10"
     inkscape:pageopacity="0"
     inkscape:pageshadow="2"
     inkscape:window-width="1920"
     inkscape:window-height="1001"
     id="namedview3813"
     showgrid="false"
     fit-margin-top="0"
     fit-margin-left="0"
     fit-margin-right="0"
     fit-margin-bottom="0"
     inkscape:zoom="1.1756847"
     inkscape:cx="292.1099"
     inkscape:cy="168.05061"
     inkscape:window-x="-9"
     inkscape:window-y="-9"
     inkscape:window-maximized="1"
     inkscape:current-layer="svg3811" />
  <path
     d="m 129.7799,274.89 c -0.0699,-2.11 -2.5599,-2.99 -2.9399,-4.93 -0.9399,-9.21 2.72,-20.31 -4.49,-27.78 -10.61,-12.19 -19.33,-26.29 -23.81,-41.9 -4.3499,-11.94 -5.5898,-24.66 -6.3899,-37.24 0.11,-11.78 0.01,-23.55 -0.01,-35.33 6.02,-1.67 13.06,-0.7 18.12,-4.99 -0.14,-1.58 0.41,-3.4 -0.63,-4.77 -1.55,-2.4 -4.8201,-1.9 -7.25,-2.54 -0.54,-0.88 -1.0701,-1.76 -1.6001,-2.64 0.3901,-2.91 2.4102,-6.3 0.1702,-8.9 -1.3601,-2.18 -4.27,-1.85 -6.3201,-2.9 -3.1001,-2.31 -1.14,-6.67 -1.5601,-9.94 -0.4399,-3.84 0.42,-7.96 4.01,-10.04 0.0901,-0.95 0.1801,-1.89 0.28,-2.84 -2.0601,-2 -2.78,-4.67 -2.37,-7.47 4.1801,-3.46 8.4301,-7.2 10.25,-12.5 3.58,-7.33 1.4401,-15.88 -2.2999,-22.67 -4.26,-5.89 -10.25,-10.15 -15.35,-15.24 -3.52,-3.63 -8.63,-6.13 -10.29,-11.23 3,-2.21 8.24,-2.29 8.1501,-7.19 C 81.5149,-0.9915 76.4277,0.4428 71.9172,0 h -18.821 c -1.3071,0.143 -2.4548,0.5644 -3.076,1.96 -0.7201,4.24 3.99,5.15 7.0499,5.84 0.14,0.56 0.42,1.67 0.55,2.22 -6.09,7.22 -14.15,12.48 -20.88,19.08 -8.04,6.71 -12.3,18.7 -7.93,28.61 2.01,5.41 6.69,9.05 10.5,13.14 0.3,2.99 -1.5999,5.23 -3.21,7.49 -0.5699,2.47 2.73,3.41 4.15,4.88 0.1801,4.91 0.28,9.83 0.13,14.74 0.15,1.75 -1.5801,2.6299 -2.5901,3.74 -1.7799,0.15 -4.1299,-0.4 -5.2899,1.37 -2.5,2.85 0.35,6.6 -0.28,9.87 -1.3,2.52 -4.65,1.58 -6.93,2.38 -2.77,0.44 -2.31,3.74 -2.53,5.81 3.88,6 11.63,4.33 17.52,6.34 -0.1,25.14 1.0299,51.15 -8.0601,75.06 -1.5099,5.93 -3.72,11.73 -7.22,16.78 -4.69,8.08 -9.79,16.04 -16.39,22.72 -2.15,2.52 -4.23,5.49 -4.29,8.94 -0.19,6.47 0.3,12.97 -0.32,19.43 -3.84,2.67 -3.63,7.58 -4,11.74 0.34,0.58 1.01,1.75 1.35,2.33 6.6801,2.56 13.98,2.21 20.99,2.8 21.36,2.47 42.88,1.64 64.34,1.67 12.99,-1.03 26.09,-0.84 38.98,-2.98 1.99,-0.1 3.5,-1.36 4.8199,-2.72 -0.2297,-2.7902 -0.3197,-5.5902 -0.6998,-8.3502 z"
     id="path3809"
     inkscape:connector-curvature="0" />
</svg>
