<?xml version="1.0" encoding="UTF-8" standalone="no"?>
<svg
   xmlns:dc="http://purl.org/dc/elements/1.1/"
   xmlns:cc="http://creativecommons.org/ns#"
   xmlns:rdf="http://www.w3.org/1999/02/22-rdf-syntax-ns#"
   xmlns:svg="http://www.w3.org/2000/svg"
   xmlns="http://www.w3.org/2000/svg"
   xmlns:sodipodi="http://sodipodi.sourceforge.net/DTD/sodipodi-0.dtd"
   xmlns:inkscape="http://www.inkscape.org/namespaces/inkscape"
   enable-background="new 0 0 1497 504"
   version="1.1"
   viewBox="0 0 129.20689 364.0935"
   id="svg3755"
   sodipodi:docname="king-2.svg"
   width="129.20689"
   height="364.09351"
   inkscape:version="0.92.4 (5da689c313, 2019-01-14)">
  <metadata
     id="metadata3761">
    <rdf:RDF>
      <cc:Work
         rdf:about="">
        <dc:format>image/svg+xml</dc:format>
        <dc:type
           rdf:resource="http://purl.org/dc/dcmitype/StillImage" />
        <dc:title></dc:title>
      </cc:Work>
    </rdf:RDF>
  </metadata>
  <defs
     id="defs3759" />
  <sodipodi:namedview
     pagecolor="#ffffff"
     bordercolor="#666666"
     borderopacity="1"
     objecttolerance="10"
     gridtolerance="10"
     guidetolerance="10"
     inkscape:pageopacity="0"
     inkscape:pageshadow="2"
     inkscape:window-width="1920"
     inkscape:window-height="1001"
     id="namedview3757"
     showgrid="false"
     fit-margin-top="0"
     fit-margin-left="0"
     fit-margin-right="0"
     fit-margin-bottom="0"
     inkscape:zoom="1.1756847"
     inkscape:cx="101.52941"
     inkscape:cy="171.04518"
     inkscape:window-x="-9"
     inkscape:window-y="-9"
     inkscape:window-maximized="1"
     inkscape:current-layer="svg3755" />
  <path
     d="m 51.299409,0.17833333 c 6.91,-0.29 13.83,-0.03 20.76,-0.16 2.5099,-0.07 5.04,0.04 7.49,0.69 0.47,4.06999997 -0.97,8.08999997 -0.2,12.14999967 2.96,0.35 5.88,-0.35 8.8,-0.75 1.7,-0.48 3.68,0.98 3.44,2.82 -0.03,8.84 -0.14,17.69 -0.13,26.54 -3.37,1.2 -6.78,-0.2 -10.18,-0.36 -1.21,0.45 -2.29,1.59 -2.22,2.94 0.02,3.4 0,7.03 1.77,10.06 5.09,-0.29 10.24,-0.25 15.27,0.69 5.130001,2.86 4.390001,9.39 4.090001,14.34 1.22,1.53 2.77,2.9 4.9,2.53 4.66,-0.33 9.78,4.08 8.4,9 -1.22,3.53 -4.92,5.02 -7.43,7.45 -3.0601,2.96 -5.71,6.3 -8.350001,9.64 -4.53,5.829997 -6.4,13.199997 -7.51,20.369997 1.5,1.53 3.02,3.04 4.58,4.53 -1.19,2.56 -3.68,4.45 -3.99,7.39 -0.76,3.69 -0.49,7.47 -0.51,11.21 1.89,2.62 5.13,3.05 8.07,3.66 2.840001,4.04 -2.13,9.56 2.440001,12.76 2.07,0.13 4.7,-0.62 6.24,1.25 1.75,2.47 0.49,6.02 -2.24,7.16 -4.54,1.79 -9.580001,1.16 -14.240001,2.5 -0.74,5.79 -0.12,11.62 -0.17,17.42 0.07,18.34 -0.31,36.68 -0.02,55.02 1.06,13.72 4.58,27.15 9.37,40.02 5.210001,12.62 13.420001,23.76 22.420001,33.93 2.56,3.43 3.35,7.87 3.31,12.08 -0.14,6.39 -0.08,12.78 0.06,19.18 3.75,2.39 3.47,7 3.67,10.91 0.16,1.51 -0.79,3.13 -2.36,3.39 -5.85,1.39 -11.88,1.54 -17.85,1.82 -21.930001,2.15 -44.000001,1.83 -66.010001,1.49 -7.96,-0.8 -15.98,-0.74 -23.93,-1.66 -6.22,-0.01 -12.4000004,-0.79 -18.29000043,-2.84 -1.64,-3.3 -0.08,-6.89 -0.06,-10.34 1.05000003,-1.26 3.06000003,-2.13 3.03000003,-3.99 0.2,-6.65 0.18,-13.3 0.11,-19.95 -0.02,-3.55 1.06,-7.15 3.28,-9.95 20.1000004,-22.36 31.2100004,-52.14 32.3800004,-82.05 -0.12,-21.44 0.5099,-42.89 -0.03,-64.31 -4.81,-2.6 -10.97,-0.49 -15.49,-3.82 -1.94,-1.28 -2.15,-3.82 -1.56,-5.88 1.59,-2.99 5.92,-0.36 7.64,-3.22 2.64,-2.9 -0.28,-6.73 0.93,-9.9 1.39,-3.86 7.07,-1.67 8.36,-5.72 0.63,-3.72 0.35,-7.55 0.21,-11.3 0.08,-2.43 -2.17,-3.91 -3.04,-5.98 -0.58,-2.23 2.11,-3.23 3.11,-4.86 0.46,-1.99 0.18,-4.08 -0.27,-6.05 -2.01,-7.5 -5.51,-14.679997 -10.74,-20.459997 -2.76,-3.33 -6.43,-5.72 -9.36,-8.87 -2.45,-2.5 -2.85,-7.02 0.0601,-9.34 2.21,-2.82 6,-1.77 9.08,-1.79 2.8,-3.24 2.24,-7.55 2.43,-11.5 0.02,-3.3 2.81,-6.39 6.19,-6.35 4.47,-0.22 8.96,0.02 13.44,-0.18 0.6,-3.92 1.24,-7.86 1.09,-11.84 -3.4,-1.44 -6.86,0.65 -10.3,0.26 -2.4901,-0.78 -2.18,-3.81 -2.2401,-5.87 0.2401,-7.88 -0.2599,-15.78 0.45,-23.63 4.19,-1.51 8.48,1.17 12.7,-0.13 -0.07,-4.0699997 -1.4,-8.0699997 -0.85,-12.14999967 z"
     id="path3753"
     clip-path="none"
     inkscape:connector-curvature="0" />
</svg>
