<?xml version="1.0" encoding="UTF-8" standalone="no"?>
<svg
   xmlns:dc="http://purl.org/dc/elements/1.1/"
   xmlns:cc="http://creativecommons.org/ns#"
   xmlns:rdf="http://www.w3.org/1999/02/22-rdf-syntax-ns#"
   xmlns:svg="http://www.w3.org/2000/svg"
   xmlns="http://www.w3.org/2000/svg"
   xmlns:sodipodi="http://sodipodi.sourceforge.net/DTD/sodipodi-0.dtd"
   xmlns:inkscape="http://www.inkscape.org/namespaces/inkscape"
   enable-background="new 0 0 1497 504"
   version="1.1"
   viewBox="0 0 147.56091 292.80249"
   id="svg3839"
   sodipodi:docname="knight-2.svg"
   width="147.56091"
   height="292.80249"
   inkscape:version="0.92.4 (5da689c313, 2019-01-14)">
  <metadata
     id="metadata3845">
    <rdf:RDF>
      <cc:Work
         rdf:about="">
        <dc:format>image/svg+xml</dc:format>
        <dc:type
           rdf:resource="http://purl.org/dc/dcmitype/StillImage" />
        <dc:title></dc:title>
      </cc:Work>
    </rdf:RDF>
  </metadata>
  <defs
     id="defs3843" />
  <sodipodi:namedview
     pagecolor="#ffffff"
     bordercolor="#666666"
     borderopacity="1"
     objecttolerance="10"
     gridtolerance="10"
     guidetolerance="10"
     inkscape:pageopacity="0"
     inkscape:pageshadow="2"
     inkscape:window-width="640"
     inkscape:window-height="480"
     id="namedview3841"
     showgrid="false"
     fit-margin-top="0"
     fit-margin-left="0"
     fit-margin-right="0"
     fit-margin-bottom="0"
     inkscape:zoom="1.1756847"
     inkscape:cx="516.66898"
     inkscape:cy="166.24441"
     inkscape:window-x="0"
     inkscape:window-y="0"
     inkscape:window-maximized="1"
     inkscape:current-layer="svg3839" />
  <path
     d="m 65.638976,4.3680916 c 0.64,-2.05 2.16,-4.05000004 4.49,-4.15000004 9.08,-0.86 18.21,0.96000004 27,3.07000004 4.850004,7.0500004 6.810004,15.6600004 12.090004,22.4500004 5.17,8.63 9.87,17.56 14.26,26.61 2.92,5.51 2.21,12.13 5.31,17.55 4.03,8.6 9.32,17.02 9.83,26.77 0.93,4.609998 -1.38,9.439998 0.67,13.849998 3.53,8.9 5.21,18.52 4.86,28.1 -0.13,2.86 -0.96,5.69 -2.42,8.15 0.92,9.93 1.32,19.9 0.5,29.84 -0.26,4.85 0.03,11.53 -4.91,14.19 -8.11,2.08 -16.62,1.82 -24.85,3.27 -0.24,5.04 1.37,9.93 3.88,14.25 4.14,8.61 9.29,16.7 15.12,24.26 3.71,5.7 10.21,9.6 11.81,16.59 1.24,8.07 0.69,16.26 1.24,24.38 3.58,3.83 3.54,9.8 2.22,14.58 -10.27,2.84 -20.96,3.45 -31.56,3.56 -20.970004,1.62 -42.030004,1.08 -63.040004,0.79 -11.04,-1.18 -22.28,-0.42 -33.1,-3.33 -2.82,-3.93 -1.96,-10.01 1.03,-13.67 1.4,-1.62 0.8,-3.93 0.98,-5.88 0.19,-6.37 -0.54,-12.81 0.4,-19.13 1.29,-6.97 7.74,-10.95 11.53,-16.43 9.2,-11.23 14.46,-24.92 19.65,-38.31 -0.35,-0.6 -1.06,-1.79 -1.42,-2.39 -6.88,-1.17 -13.92,-1.4 -20.68,-3.19 -1.67,-5.74 0.77,-11.45 2.05,-16.99 5.05,-19.12 9.94,-38.29 14.42,-57.55 1.36,-5.52 2.17,-11.15 2.05,-16.839998 -3.65,-0.26 -7.27,0.31 -10.89,0.54 -8,-0.59 -15.98,-1.39 -23.97,-1.99 -2.56,-0.27 -5.1499996,-0.59 -7.5699996,-1.49 -3.14,-1.79 -1.99,-5.88 -2.97,-8.78 -2.15,-5.83 -4.46000001,-12.02 -3.37000001,-18.33 1.78000001,-2.92 5.07000001,-4.43 7.66000001,-6.52 15.8599996,-11.78 31.9899996,-23.18 47.7999996,-35.02 1.64,-1.3 3.3,-2.78 3.91,-4.85 2.01,-5.98 3.83,-12.03 5.99,-17.9600004 z"
     id="path3837"
     inkscape:connector-curvature="0" />
</svg>
