<?xml version="1.0" encoding="UTF-8" standalone="no"?>
<svg
   xmlns:dc="http://purl.org/dc/elements/1.1/"
   xmlns:cc="http://creativecommons.org/ns#"
   xmlns:rdf="http://www.w3.org/1999/02/22-rdf-syntax-ns#"
   xmlns:svg="http://www.w3.org/2000/svg"
   xmlns="http://www.w3.org/2000/svg"
   xmlns:sodipodi="http://sodipodi.sourceforge.net/DTD/sodipodi-0.dtd"
   xmlns:inkscape="http://www.inkscape.org/namespaces/inkscape"
   enable-background="new 0 0 170 220"
   viewBox="0 0 170 220"
   version="1.1"
   id="svg3915"
   sodipodi:docname="pawn-2.svg"
   width="170"
   height="220"
   inkscape:version="0.92.4 (5da689c313, 2019-01-14)">
  <metadata
     id="metadata3921">
    <rdf:RDF>
      <cc:Work
         rdf:about="">
        <dc:format>image/svg+xml</dc:format>
        <dc:type
           rdf:resource="http://purl.org/dc/dcmitype/StillImage" />
        <dc:title></dc:title>
      </cc:Work>
    </rdf:RDF>
  </metadata>
  <defs
     id="defs3919" />
  <sodipodi:namedview
     pagecolor="#ffffff"
     bordercolor="#666666"
     borderopacity="1"
     objecttolerance="10"
     gridtolerance="10"
     guidetolerance="10"
     inkscape:pageopacity="0"
     inkscape:pageshadow="2"
     inkscape:window-width="1920"
     inkscape:window-height="1001"
     id="namedview3917"
     showgrid="false"
     fit-margin-top="0"
     fit-margin-left="0"
     fit-margin-right="0"
     fit-margin-bottom="0"
     inkscape:zoom="1.3045455"
     inkscape:cx="85"
     inkscape:cy="110"
     inkscape:window-x="-9"
     inkscape:window-y="-9"
     inkscape:window-maximized="1"
     inkscape:current-layer="svg3915" />
  <path
     d="m 117.32,23.68 c 17.574,17.574 17.574,46.066 0,63.64 -17.574,17.574 -46.065,17.574 -63.639,0 -17.574,-17.574 -17.574,-46.066 0,-63.64 17.574,-17.574 46.066,-17.574 63.639,0 z"
     id="path3891"
     inkscape:connector-curvature="0"
     style="fill-rule:evenodd" />
  <path
     d="m 117.32,23.68 c 17.574,17.574 17.574,46.066 0,63.64 -17.574,17.574 -46.065,17.574 -63.639,0 -17.574,-17.574 -17.574,-46.066 0,-63.64 17.574,-17.574 46.066,-17.574 63.639,0 z"
     stroke-miterlimit="1"
     id="path3893"
     inkscape:connector-curvature="0"
     style="fill:none;stroke:#000000;stroke-linecap:round;stroke-linejoin:round;stroke-miterlimit:1" />
  <path
     d="m 155.5,210.5 h -140 c -2.761,0 -5,-2.238 -5,-5 v -10 c 0,-2.762 2.239,-5 5,-5 h 140 c 2.762,0 5,2.238 5,5 v 10 c 0,2.762 -2.238,5 -5,5 z"
     id="path3895"
     inkscape:connector-curvature="0"
     style="fill-rule:evenodd" />
  <path
     d="m 155.5,210.5 h -140 c -2.761,0 -5,-2.238 -5,-5 v -10 c 0,-2.762 2.239,-5 5,-5 h 140 c 2.762,0 5,2.238 5,5 v 10 c 0,2.762 -2.238,5 -5,5 z"
     stroke-miterlimit="1"
     id="path3897"
     inkscape:connector-curvature="0"
     style="fill:none;stroke:#000000;stroke-linecap:round;stroke-linejoin:round;stroke-miterlimit:1" />
  <path
     d="m 145.5,190.5 h -120 c -2.761,0 -5,-2.238 -5,-5 v -20 c 0,-2.762 2.239,-5 5,-5 h 120 c 2.762,0 5,2.238 5,5 v 20 c 0,2.762 -2.238,5 -5,5 z"
     id="path3899"
     inkscape:connector-curvature="0"
     style="fill-rule:evenodd" />
  <path
     d="m 145.5,190.5 h -120 c -2.761,0 -5,-2.238 -5,-5 v -20 c 0,-2.762 2.239,-5 5,-5 h 120 c 2.762,0 5,2.238 5,5 v 20 c 0,2.762 -2.238,5 -5,5 z"
     stroke-miterlimit="1"
     id="path3901"
     inkscape:connector-curvature="0"
     style="fill:none;stroke:#000000;stroke-linecap:round;stroke-linejoin:round;stroke-miterlimit:1" />
  <path
     d="m 135.5,160.5 h -100 c -2.761,0 -5,-2.238 -5,-5 0,-2.762 2.239,-5 5,-5 h 100 c 2.762,0 5,2.238 5,5 0,2.762 -2.238,5 -5,5 z"
     id="path3903"
     inkscape:connector-curvature="0"
     style="fill-rule:evenodd" />
  <path
     d="m 135.5,160.5 h -100 c -2.761,0 -5,-2.238 -5,-5 0,-2.762 2.239,-5 5,-5 h 100 c 2.762,0 5,2.238 5,5 0,2.762 -2.238,5 -5,5 z"
     stroke-miterlimit="1"
     id="path3905"
     inkscape:connector-curvature="0"
     style="fill:none;stroke:#000000;stroke-linecap:round;stroke-linejoin:round;stroke-miterlimit:1" />
  <path
     d="m 135.5,100.5 h -100 c -2.761,0 -5,-2.239 -5,-5 0,-2.761 2.239,-5 5,-5 h 100 c 2.762,0 5,2.239 5,5 0,2.761 -2.238,5 -5,5 z"
     id="path3907"
     inkscape:connector-curvature="0"
     style="fill-rule:evenodd" />
  <path
     d="m 135.5,100.5 h -100 c -2.761,0 -5,-2.239 -5,-5 0,-2.761 2.239,-5 5,-5 h 100 c 2.762,0 5,2.239 5,5 0,2.761 -2.238,5 -5,5 z"
     stroke-miterlimit="1"
     id="path3909"
     inkscape:connector-curvature="0"
     style="fill:none;stroke:#000000;stroke-linecap:round;stroke-linejoin:round;stroke-miterlimit:1" />
  <path
     d="m 124.429,160.5 h -80 c -2.762,0 -4.521,-2.238 -3.929,-5 l 12.857,-60 c 0.592,-2.761 3.31,-5 6.072,-5 h 50 c 2.761,0 5.479,2.239 6.071,5 l 12.857,60 c 0.592,2.762 -1.168,5 -3.928,5 z"
     id="path3911"
     inkscape:connector-curvature="0"
     style="fill-rule:evenodd" />
  <path
     d="m 124.429,160.5 h -80 c -2.762,0 -4.521,-2.238 -3.929,-5 l 12.857,-60 c 0.592,-2.761 3.31,-5 6.072,-5 h 50 c 2.761,0 5.479,2.239 6.071,5 l 12.857,60 c 0.592,2.762 -1.168,5 -3.928,5 z"
     stroke-miterlimit="1"
     id="path3913"
     inkscape:connector-curvature="0"
     style="fill:none;stroke:#000000;stroke-linecap:round;stroke-linejoin:round;stroke-miterlimit:1" />
</svg>
