<?xml version="1.0" encoding="UTF-8" standalone="no"?>
<svg
   xmlns:dc="http://purl.org/dc/elements/1.1/"
   xmlns:cc="http://creativecommons.org/ns#"
   xmlns:rdf="http://www.w3.org/1999/02/22-rdf-syntax-ns#"
   xmlns:svg="http://www.w3.org/2000/svg"
   xmlns="http://www.w3.org/2000/svg"
   xmlns:sodipodi="http://sodipodi.sourceforge.net/DTD/sodipodi-0.dtd"
   xmlns:inkscape="http://www.inkscape.org/namespaces/inkscape"
   enable-background="new 0 0 1497 504"
   version="1.1"
   viewBox="0 0 131.26532 342.85443"
   id="svg3783"
   sodipodi:docname="queen-2.svg"
   width="131.26532"
   height="342.85443"
   inkscape:version="0.92.4 (5da689c313, 2019-01-14)">
  <metadata
     id="metadata3789">
    <rdf:RDF>
      <cc:Work
         rdf:about="">
        <dc:format>image/svg+xml</dc:format>
        <dc:type
           rdf:resource="http://purl.org/dc/dcmitype/StillImage" />
        <dc:title></dc:title>
      </cc:Work>
    </rdf:RDF>
  </metadata>
  <defs
     id="defs3787" />
  <sodipodi:namedview
     pagecolor="#ffffff"
     bordercolor="#666666"
     borderopacity="1"
     objecttolerance="10"
     gridtolerance="10"
     guidetolerance="10"
     inkscape:pageopacity="0"
     inkscape:pageshadow="2"
     inkscape:window-width="1920"
     inkscape:window-height="1001"
     id="namedview3785"
     showgrid="false"
     fit-margin-top="0"
     fit-margin-left="0"
     fit-margin-right="0"
     fit-margin-bottom="0"
     inkscape:zoom="1.1756847"
     inkscape:cx="-53.054417"
     inkscape:cy="170.02993"
     inkscape:window-x="-9"
     inkscape:window-y="-9"
     inkscape:window-maximized="1"
     inkscape:current-layer="svg3783" />
  <path
     d="m 55.295583,1.7244898 c 4.54,-1.55 9.48,-2.14 14.24,-1.42 5.56,0.73 10.23,5.07 12.18,10.2100002 0.98,3.95 0.49,8.37 -2.06,11.65 -3.11,3.61 -2.3,8.66 -1.63,12.98 2.7,0.77 5.94,0.87 7.91,3.15 2.63,3.34 3.91,7.6 6.78,10.75 5.54,2.54 12.929997,-2.31 17.759997,2.37 3.73,2.55 3.91,8.87 -0.04,11.29 -10.489997,8.43 -18.579997,20.59 -19.739997,34.23 1.1,1.15 2.21,2.3 3.35,3.43 -0.12,3.14 -3.04,5.32 -3.0099,8.47 -0.19,3.4 -0.08,6.81 -0.22,10.21 0.74,0.67 1.49,1.33 2.26,2 2.91,0.03 6.27,1.52 6.89,4.65 -0.04,2.85 -1.02,5.62 -0.87,8.5 0.39,0.33 1.169997,1 1.559997,1.33 2.5099,0.03 5.79,-0.81 7.41,1.77 2.1,2.64 -0.42,6.23 -3.08,7.3 -4.35,1.89 -9.269997,1.66 -13.799997,2.96 -0.5,2.71 -0.54,5.47 -0.45,8.22 0.29,17.63 -0.07,35.27 0.25,52.9 0.91,7.03 0.33,14.2 1.72,21.18 2.76,17.1 9.229997,33.63 19.009997,47.95 2.53,3.68 4.56,7.76 7.72,10.98 2.63,2.77 4.91,5.9 6.74,9.27 1.9,4.33 0.93,9.18 1.13,13.76 0.24,4.33 0.19,8.68 0.41,13.02 3.88,2.82 4.1,8.17 2.92,12.42 -1.59,2.24 -4.89,1.95 -7.29,2.75 -11.88,1.88 -23.969997,1.48 -35.929997,2.62 -11.65,0.42 -23.31,0.12 -34.97,0.2 -10.69,0.09 -21.33,-1.31 -32.02,-1.08 -6.76,-1.07 -13.8599998,-0.02 -20.30999985,-2.66 -0.15,-3.42 -0.27,-6.9 0.42,-10.27 0.25,-1.88 2.29000005,-2.89 2.59000005,-4.75 1,-8.96 -1.08,-18.22 1.46,-27 2.35,-4.15 5.8799998,-7.49 8.7199998,-11.31 10.47,-13.08 18.67,-28.28 22.01,-44.8 2.3,-8.85 3.67,-17.97 3.6,-27.12 0.01,-12.67 0.03,-25.34 -0.28,-38.01 -0.47,-9.02 -0.34,-18.06 0.4,-27.04 -0.27,-0.31 -0.81,-0.93 -1.08,-1.24 -5.24,-1.42 -11.76,-0.09 -15.83,-4.41 -2.19,-1.91 -1.26,-5.9 1.4,-6.84 2.07,-0.58 4.21,-0.81 6.34,-1.15 0.54,-3.4 0.23,-6.83 0.08,-10.25 0.78,-0.78 1.57,-1.56 2.38,-2.34 1.84,-0.41 3.91,-0.53 5.34,-1.93 1.46,-4.69 0.38,-9.68 0.17,-14.48 -0.98,-0.99 -1.96,-1.98 -2.93,-2.97 -0.02,-1.15 -0.01,-2.31 0.01,-3.45 4.95,-1.71 3.1801,-7.75 1.9901,-11.49 -1.97,-7.5 -7.12,-13.46 -11.83,-19.38 -3.26,-3.81 -9.86,-6.01 -9.38,-11.94 -0.28,-2.98 2.03,-5.53 4.69,-6.49 5.01,-0.42 10.04,0.27 15.07,0.31 1.93,-3.68 3.87,-7.36 6.08,-10.87 1.8,-2.77 5.14,-3.61 8.23,-3.91 1.6,-3.12 1.28,-6.76 0.98,-10.14 -1.01,-3.47 -3.99,-6.22 -4.05,-10.01 -0.8002,-5.9300002 2.9398,-12.0900002 8.5998,-14.0800002 z"
     id="path3781"
     inkscape:connector-curvature="0" />
</svg>
