<?xml version="1.0" encoding="UTF-8" standalone="no"?>
<svg
   xmlns:dc="http://purl.org/dc/elements/1.1/"
   xmlns:cc="http://creativecommons.org/ns#"
   xmlns:rdf="http://www.w3.org/1999/02/22-rdf-syntax-ns#"
   xmlns:svg="http://www.w3.org/2000/svg"
   xmlns="http://www.w3.org/2000/svg"
   xmlns:sodipodi="http://sodipodi.sourceforge.net/DTD/sodipodi-0.dtd"
   xmlns:inkscape="http://www.inkscape.org/namespaces/inkscape"
   enable-background="new 0 0 1497 504"
   version="1.1"
   viewBox="0 0 129.33847 228.6326"
   id="svg3943"
   sodipodi:docname="rook-2.svg"
   width="129.33847"
   height="228.6326"
   inkscape:version="0.92.4 (5da689c313, 2019-01-14)">
  <metadata
     id="metadata3949">
    <rdf:RDF>
      <cc:Work
         rdf:about="">
        <dc:format>image/svg+xml</dc:format>
        <dc:type
           rdf:resource="http://purl.org/dc/dcmitype/StillImage" />
        <dc:title></dc:title>
      </cc:Work>
    </rdf:RDF>
  </metadata>
  <defs
     id="defs3947" />
  <sodipodi:namedview
     pagecolor="#ffffff"
     bordercolor="#666666"
     borderopacity="1"
     objecttolerance="10"
     gridtolerance="10"
     guidetolerance="10"
     inkscape:pageopacity="0"
     inkscape:pageshadow="2"
     inkscape:window-width="1920"
     inkscape:window-height="1001"
     id="namedview3945"
     showgrid="false"
     fit-margin-top="0"
     fit-margin-left="0"
     fit-margin-right="0"
     fit-margin-bottom="0"
     inkscape:zoom="1.1756847"
     inkscape:cx="-572.74021"
     inkscape:cy="164.03518"
     inkscape:window-x="-9"
     inkscape:window-y="-9"
     inkscape:window-maximized="1"
     inkscape:current-layer="svg3943" />
  <path
     d="m 88.459786,3.7174162 c 4.1646,0.2559 7.6976,-2.5298 11.852004,-2.2247 4.2928,0.1083 8.803,-0.58080003 12.889,1.0336 -0.1777,5.5617 0,11.1229998 -0.1185,16.6749998 -4.6975,4.2131 -1.2828,10.651 -1.8849,15.996 -0.4047,5.04 1.1744,11.114 -2.4771,15.278 -4.5989,4.282 -11.388004,2.8547 -16.836004,5.04 -0.1085,14.254 0.1283,28.507 0.089,42.761 -1.0165,22.552004 5.8718,45.055004 17.487004,64.279004 1.5494,2.5692 3.2864,5.0597 4.5298,7.8061 1.8356,3.4453 4.5791,6.231 7.3226,8.9578 2.1909,3.1204 4.3522,6.4575 4.6976,10.375 0.5427,7.1564 -0.5033,14.372 0.296,21.508 3.0988,3.2977 3.2369,7.9242 2.9113,12.196 -1.3026,2.0869 -3.9672,2.4117 -6.1975,2.707 -5.5858,0.5808 -11.172,1.2206 -16.757,1.8604 -20.083004,0.6398 -40.176004,1.0139 -60.269004,0.2067 -7.9641,0.3741 -15.82,-1.0828 -23.764,-1.2108 -7.4016,-0.945 -15.1390004,-0.3741 -22.13600043,-3.3862 -0.2863,-4.9514 -0.1283,-10.316 3.55270003,-14.076 1.2533,-7.1465 -0.01,-14.49 0.5922,-21.696 1.2335,-8.2687 8.7634004,-13.063 12.8790004,-19.776 10.135,-14.283 16.886,-30.811 20.034,-48.008 2.3291,-17.335 0.9968,-34.847004 1.5889,-52.270004 0.099,-3.8489 0.1283,-7.6978 -0.059,-11.547 -0.3158,-0.443 -0.9474,-1.3289 -1.2731,-1.762 -4.3225,-1.0533 -8.941,-0.6398 -13.096,-2.3822 -2.8126,-1.1517 -4.6482,-3.9965 -4.6976,-7.0087 -0.5526,-7.0087 -0.6019,-14.096 0.2468,-21.085 -1.0067,-1.3781 -2.7534,-2.5397 -2.7732,-4.4001 -0.2073,-5.7192 0.1677,-11.4479998 -0.03,-17.1769998 0.7104,-0.0295 2.1316,-0.0984 2.8422,-0.128 1.0955,-0.4627 2.1514,-1.1222 3.3652,-1.1812 6.5627,-0.65950003 13.155,-0.23630003 19.728,-0.15750003 0.7203,0.91550003 1.4309,1.83090003 2.1316,2.75620003 4.3226,0.01 8.6451,-0.0295 12.958,-0.01 0.1974,-1.1517 0.3948,-2.3133 0.5724,-3.46500003 6.6615,-0.2953 13.323,-0.2756 19.974,0.1181 l 8.1714,0.1181 c 0.5525,1.09270003 1.1051,2.18530003 1.6578,3.27800003 z"
     id="path3941"
     inkscape:connector-curvature="0" />
</svg>
